<?xml version="1.0" standalone="no"?>
<!DOCTYPE svg PUBLIC "-//W3C//DTD SVG 20010904//EN"
 "http://www.w3.org/TR/2001/REC-SVG-20010904/DTD/svg10.dtd">
<svg version="1.0" xmlns="http://www.w3.org/2000/svg"
 width="598.000000pt" height="155.000000pt" viewBox="0 0 598.000000 155.000000"
 preserveAspectRatio="xMidYMid meet">

<g transform="translate(0.000000,155.000000) scale(0.100000,-0.100000)"
fill="#000000" stroke="none">
<path d="M1916 1249 c-70 -55 -178 -249 -198 -356 -13 -73 -5 -111 26 -123 49
-18 156 37 156 81 0 26 -7 24 -47 -11 -36 -32 -73 -39 -93 -15 -18 21 -4 50
62 129 110 130 192 269 181 304 -7 19 -58 14 -87 -9z m44 -27 c0 -22 -170
-272 -185 -272 -3 0 4 22 14 50 37 97 171 271 171 222z"/>
<path d="M2894 1260 c-68 -16 -139 -88 -244 -247 -98 -147 -92 -142 -143 -132
-58 10 -127 -4 -149 -31 -22 -28 -22 -32 1 -61 26 -32 109 -31 174 1 l46 23
83 -21 c112 -28 177 -35 207 -19 45 23 35 34 -37 40 -72 6 -191 33 -205 47
-10 9 122 214 183 283 44 50 95 83 104 68 6 -9 -56 -70 -88 -88 -21 -12 -11
-43 14 -43 26 0 127 95 135 127 5 21 2 32 -15 45 -12 10 -25 18 -29 17 -3 -1
-20 -4 -37 -9z m-408 -435 c-26 -20 -76 -20 -76 0 0 11 12 15 48 15 43 -1 46
-2 28 -15z"/>
<path d="M5177 1255 c-4 -8 -12 -12 -20 -9 -20 7 -121 -72 -221 -175 -84 -86
-91 -91 -130 -91 -41 0 -66 -13 -66 -35 0 -7 14 -9 35 -7 19 2 35 2 35 -1 0
-4 -18 -32 -40 -63 -22 -32 -40 -63 -40 -71 0 -26 -28 -12 -76 40 -56 59 -109
126 -103 130 2 2 30 13 62 25 151 56 216 150 151 216 -15 14 -45 31 -68 37
-112 31 -344 -44 -362 -117 -4 -14 -2 -30 4 -36 15 -15 63 -1 56 16 -13 35
137 96 235 96 102 0 134 -28 91 -82 -36 -46 -179 -122 -196 -105 -3 3 15 36
40 74 47 70 54 87 36 98 -18 11 -37 -12 -145 -169 -102 -150 -135 -205 -135
-226 0 -18 57 -12 64 8 12 31 88 152 96 152 5 0 31 -31 59 -69 28 -38 70 -86
92 -106 39 -35 41 -36 65 -20 18 11 29 13 43 6 16 -9 25 1 71 70 29 45 59 83
65 85 7 3 42 4 79 2 l66 -3 -31 -65 c-50 -106 -51 -109 -26 -102 35 8 46 21
82 91 52 105 165 367 165 383 0 24 -26 42 -33 23z m-80 -165 l-51 -110 -63 0
c-59 0 -63 1 -54 19 12 22 200 201 211 201 5 0 -15 -49 -43 -110z"/>
<path d="M720 1249 c-103 -20 -200 -91 -200 -147 0 -33 8 -45 37 -61 22 -11
21 -13 -43 -76 -64 -62 -65 -65 -62 -111 2 -38 8 -51 30 -67 57 -42 171 -15
265 62 65 54 94 121 57 135 -23 9 -24 8 -24 -12 0 -46 -164 -162 -230 -162
-86 0 -55 101 52 173 29 19 73 39 97 44 49 9 73 35 53 55 -9 9 -22 9 -62 -1
-55 -14 -108 -7 -117 15 -8 21 25 54 82 80 51 24 111 32 100 14 -4 -6 6 -10
22 -10 64 0 94 23 70 53 -16 20 -72 27 -127 16z"/>
<path d="M2460 1251 c0 -6 -6 -8 -13 -5 -22 8 -109 -58 -213 -163 -94 -96
-104 -103 -141 -103 -38 0 -63 -14 -63 -35 0 -7 14 -9 36 -7 22 3 34 1 31 -5
-4 -6 -22 -34 -42 -62 -38 -58 -46 -101 -17 -100 10 0 37 31 67 77 l50 77 77
3 77 3 -39 -86 c-22 -47 -40 -87 -40 -89 0 -10 51 9 65 24 24 26 207 440 203
459 -4 17 -38 29 -38 12z m-80 -170 l-50 -101 -60 0 c-33 0 -60 4 -60 9 0 15
214 215 217 204 2 -6 -19 -57 -47 -112z"/>
<path d="M3207 1250 c-92 -16 -197 -83 -197 -126 0 -19 33 -35 51 -23 7 5 10
9 5 9 -5 0 1 11 13 24 71 76 291 98 291 30 0 -37 -90 -104 -194 -144 -35 -13
-33 -2 9 65 49 75 52 85 26 85 -26 0 -64 -51 -171 -229 -80 -134 -92 -164 -67
-174 19 -7 31 3 50 38 11 20 16 24 17 13 1 -52 127 -68 213 -28 121 57 143
167 40 201 l-36 12 29 14 c123 62 169 146 111 201 -19 18 -111 46 -136 41 -3
-1 -28 -5 -54 -9z m90 -313 c15 -14 15 -20 3 -43 -21 -38 -88 -74 -141 -74
-51 0 -75 16 -58 37 14 16 9 16 -26 3 l-26 -10 31 58 30 57 85 -6 c61 -4 90
-10 102 -22z"/>
<path d="M3820 1251 c0 -5 -8 -7 -17 -5 -26 6 -141 -84 -231 -182 -73 -79 -79
-84 -119 -84 -26 0 -48 -6 -59 -17 -17 -17 -16 -18 24 -21 l42 -3 -39 -57
c-48 -71 -56 -95 -37 -111 12 -10 24 3 73 73 l58 86 73 0 c83 0 83 2 37 -90
-12 -25 -25 -55 -29 -67 -6 -19 -4 -21 21 -15 23 6 37 25 80 110 76 152 165
363 159 379 -6 15 -36 18 -36 4z m-80 -164 l-50 -107 -60 0 c-33 0 -60 3 -60
6 0 21 206 222 217 211 2 -2 -19 -52 -47 -110z"/>
<path d="M4000 1220 c-36 -22 -73 -40 -83 -40 -24 0 -33 -28 -14 -47 14 -14
19 -14 51 5 20 12 36 19 36 16 0 -3 -17 -31 -38 -62 -102 -151 -149 -252 -138
-296 17 -67 88 -28 245 132 69 70 121 120 116 112 -5 -8 -41 -64 -81 -125 -94
-145 -174 -285 -174 -306 0 -21 32 -50 45 -41 6 4 26 27 45 52 20 26 25 37 12
26 -12 -11 -22 -15 -22 -11 0 11 80 152 224 394 63 107 113 198 110 203 -3 4
-16 8 -28 8 -17 0 -49 -29 -118 -108 -106 -119 -293 -302 -309 -302 -24 0 41
121 163 302 61 92 68 112 42 122 -19 7 -8 12 -84 -34z"/>
<path d="M5375 1230 c-29 -18 -59 -29 -73 -27 -28 5 -45 -21 -31 -46 12 -21
38 -22 67 -1 13 9 25 14 28 12 9 -9 -92 -143 -111 -146 -30 -6 -40 -19 -26
-36 10 -12 1 -32 -49 -110 -61 -94 -66 -116 -31 -116 24 0 40 19 96 117 l47
83 28 -16 c15 -9 69 -50 121 -90 113 -89 142 -101 169 -74 27 27 25 40 -4 40
-20 0 -204 126 -250 170 -5 5 23 24 62 44 180 90 326 191 300 207 -25 16 -47
9 -110 -35 -86 -59 -227 -140 -234 -134 -3 3 17 41 45 84 37 58 47 82 39 91
-15 19 -27 16 -83 -17z"/>
<path d="M968 1038 c-47 -12 -113 -69 -138 -119 -60 -117 27 -189 161 -131
l45 20 0 -21 c-2 -40 23 -27 65 35 79 116 184 211 164 148 -3 -11 -28 -59 -55
-107 -41 -76 -46 -89 -32 -95 12 -4 26 5 46 30 48 60 185 196 191 190 4 -3
-12 -34 -35 -69 -22 -35 -43 -73 -46 -85 -15 -61 32 -88 97 -56 22 11 42 16
45 11 10 -16 73 -27 109 -19 48 11 115 58 115 81 0 25 -5 24 -53 -11 -52 -37
-95 -46 -122 -27 -17 13 -17 17 -5 31 7 10 33 29 57 43 50 29 52 50 5 45 -44
-5 -40 12 10 42 35 21 44 23 48 11 8 -22 54 4 58 33 3 19 -1 22 -33 22 -68 0
-155 -62 -155 -111 0 -15 6 -29 12 -31 8 -3 3 -10 -12 -18 -14 -7 -42 -28 -63
-46 -81 -73 -89 -26 -17 91 50 80 61 114 38 116 -57 5 -92 -12 -152 -75 -41
-44 -41 -42 -11 17 19 38 19 39 1 53 -22 16 -40 9 -103 -43 -48 -39 -55 -35
-18 9 28 34 25 51 -8 39 -13 -5 -39 -40 -67 -92 -41 -76 -50 -86 -99 -111 -68
-35 -135 -38 -151 -8 -16 30 3 79 48 122 55 52 112 78 98 43 -3 -8 -9 -22 -12
-30 -9 -23 33 -19 46 4 16 30 12 59 -9 71 -11 5 -21 10 -23 9 -2 -1 -19 -5
-40 -11z"/>
<path d="M3034 310 c0 -63 1 -89 3 -57 2 31 2 83 0 115 -2 31 -3 5 -3 -58z"/>
<path d="M3623 315 c-1 -60 1 -104 4 -98 3 10 10 9 27 -3 17 -11 30 -12 48 -5
28 11 38 29 38 71 0 42 -10 60 -38 71 -18 7 -31 6 -48 -6 -23 -15 -23 -14 -27
33 -2 26 -4 -2 -4 -63z m101 -7 c15 -42 -3 -82 -37 -86 -39 -5 -57 14 -57 57
0 46 16 63 55 59 22 -2 32 -10 39 -30z"/>
<path d="M1922 304 c1 -60 3 -90 5 -68 4 40 6 42 43 48 47 7 70 29 70 65 0 37
-20 52 -75 59 l-45 5 2 -109z m98 67 c5 -11 10 -24 10 -30 0 -20 -33 -41 -66
-41 -34 0 -34 0 -34 45 l0 45 40 0 c29 0 42 -5 50 -19z"/>
<path d="M3163 398 c2 -7 15 -55 28 -105 13 -51 27 -93 31 -93 4 0 17 33 28
73 11 39 24 81 29 92 l8 20 6 -20 c39 -133 50 -165 56 -165 4 0 18 42 31 93
13 50 26 98 28 106 3 8 1 12 -4 8 -6 -3 -19 -41 -29 -84 -10 -43 -22 -81 -25
-86 -4 -4 -17 31 -31 79 -13 47 -28 86 -34 86 -5 0 -21 -39 -34 -87 -14 -49
-28 -80 -32 -73 -3 7 -15 48 -25 91 -10 42 -22 77 -27 77 -5 0 -7 -6 -4 -12z"/>
<path d="M3930 390 c0 -5 5 -10 10 -10 6 0 10 5 10 10 0 6 -4 10 -10 10 -5 0
-10 -4 -10 -10z"/>
<path d="M4009 369 c-3 -7 -3 -44 -1 -82 3 -55 7 -69 24 -78 14 -8 23 -8 31 0
8 8 5 11 -11 11 -25 0 -35 27 -30 86 2 31 8 40 28 45 l25 7 -27 1 c-14 1 -28
6 -30 13 -3 8 -6 7 -9 -3z"/>
<path d="M2120 347 c-31 -16 -47 -68 -32 -102 15 -33 56 -49 91 -36 24 9 23 9
-14 10 -44 1 -65 15 -65 43 0 15 9 18 50 18 46 0 50 2 50 24 0 14 -10 32 -22
40 -27 19 -26 19 -58 3z m64 -23 c9 -24 -2 -34 -39 -34 -39 0 -52 14 -35 35
17 20 66 19 74 -1z"/>
<path d="M2262 280 l1 -85 7 65 c3 36 3 74 -1 85 -4 11 -7 -17 -7 -65z"/>
<path d="M2294 344 c-18 -14 -18 -15 6 -8 31 8 50 24 29 24 -8 0 -24 -7 -35
-16z"/>
<path d="M2392 349 c-36 -14 -25 -50 21 -72 24 -11 37 -24 37 -37 0 -17 -7
-20 -42 -21 -37 0 -40 -2 -22 -11 16 -7 30 -6 50 4 43 20 38 49 -13 73 -27 12
-43 26 -43 37 0 14 9 18 43 19 32 0 37 2 22 9 -25 11 -25 11 -53 -1z"/>
<path d="M2540 347 c-20 -10 -26 -21 -28 -57 -4 -58 14 -83 58 -83 22 0 39 7
52 22 49 62 -13 152 -82 118z m68 -19 c16 -16 16 -80 0 -96 -7 -7 -24 -12 -38
-12 -36 0 -50 17 -50 60 0 43 14 60 50 60 14 0 31 -5 38 -12z"/>
<path d="M2692 280 l1 -85 8 63 c4 35 4 73 -1 85 -6 15 -9 -5 -8 -63z"/>
<path d="M2740 350 c-11 -7 -7 -10 17 -10 36 0 40 -8 46 -95 3 -44 4 -43 5 15
1 36 -2 70 -6 76 -11 17 -45 25 -62 14z"/>
<path d="M2895 350 c-16 -6 -12 -9 20 -11 33 -3 41 -8 43 -26 3 -21 -1 -23
-35 -23 -44 0 -63 -14 -63 -47 0 -33 34 -48 70 -30 26 13 29 13 33 -2 3 -9 5
17 6 57 1 69 0 73 -25 82 -14 6 -26 10 -27 9 -1 0 -11 -4 -22 -9z m65 -88 c0
-10 -5 -23 -12 -30 -17 -17 -67 -15 -74 3 -10 24 15 45 52 45 26 0 34 -4 34
-18z"/>
<path d="M3480 347 c-31 -16 -47 -68 -32 -102 15 -33 56 -49 91 -36 24 9 23 9
-14 10 -44 1 -65 15 -65 43 0 15 9 18 50 18 46 0 50 2 50 24 0 14 -10 32 -22
40 -27 19 -26 19 -58 3z m64 -23 c9 -24 -2 -34 -39 -34 -39 0 -52 14 -35 35
17 20 66 19 74 -1z"/>
<path d="M3812 349 c-36 -14 -25 -50 21 -72 24 -11 37 -24 37 -37 0 -17 -7
-20 -42 -21 -37 0 -40 -2 -22 -11 16 -7 30 -6 50 4 43 20 38 49 -13 73 -27 12
-43 26 -43 37 0 14 9 18 43 19 32 0 37 2 22 9 -25 11 -25 11 -53 -1z"/>
<path d="M3930 280 c0 -47 4 -80 10 -80 6 0 10 33 10 80 0 47 -4 80 -10 80 -6
0 -10 -33 -10 -80z"/>
<path d="M4150 353 c-37 -13 -53 -79 -30 -123 12 -23 51 -33 82 -21 20 8 17
10 -19 10 -31 1 -45 6 -53 20 -18 35 -12 41 45 41 63 0 71 15 30 55 -25 26
-29 27 -55 18z m55 -38 c0 -15 -8 -21 -34 -23 -41 -4 -60 11 -41 33 20 24 75
16 75 -10z"/>
</g>
</svg>
